<svg id="svg" version="1.1" xmlns="http://www.w3.org/2000/svg" xmlns:xlink="http://www.w3.org/1999/xlink" width="400" height="400" viewBox="0, 0, 400,400"><g id="svgg"><path id="path0" d="M108.268 36.266 C 108.120 36.413,108.000 37.133,108.000 37.867 L 108.000 39.200 105.043 39.200 C 101.886 39.200,101.600 39.385,101.600 41.433 C 101.600 42.295,101.426 42.400,100.000 42.400 C 98.438 42.400,98.400 42.433,98.400 43.800 C 98.400 45.067,98.293 45.200,97.280 45.200 C 95.859 45.200,95.200 45.859,95.200 47.280 C 95.200 48.293,95.067 48.400,93.800 48.400 C 92.433 48.400,92.400 48.438,92.400 50.000 C 92.400 51.426,92.295 51.600,91.433 51.600 C 89.388 51.600,89.200 51.888,89.200 55.019 L 89.200 57.952 87.700 58.076 L 86.200 58.200 86.098 109.500 L 85.997 160.800 79.498 160.847 C 71.174 160.908,70.637 161.018,70.475 162.702 L 70.349 164.000 67.803 164.000 C 64.985 164.000,64.000 164.577,64.000 166.229 C 64.000 167.066,63.813 167.200,62.643 167.200 C 61.209 167.200,60.800 167.696,60.800 169.433 C 60.800 170.272,60.614 170.400,59.400 170.400 C 58.033 170.400,58.000 170.438,58.000 172.000 L 58.000 173.600 56.400 173.600 C 54.804 173.600,54.800 173.604,54.800 175.176 C 54.800 176.708,54.758 176.755,53.300 176.876 L 51.800 177.000 51.682 179.900 L 51.565 182.800 50.397 182.800 C 48.367 182.800,48.400 182.239,48.400 216.374 L 48.400 248.400 42.833 248.400 C 36.253 248.400,36.000 248.466,36.000 250.186 C 36.000 251.484,35.996 251.486,33.541 251.743 C 30.772 252.032,30.000 252.485,30.000 253.817 C 30.000 254.514,29.709 254.800,28.797 255.001 C 27.347 255.319,26.932 256.014,26.573 258.722 C 26.314 260.673,26.227 260.796,24.947 261.036 L 23.594 261.290 23.697 287.545 L 23.800 313.800 25.051 313.922 C 26.236 314.037,26.317 314.155,26.575 316.122 C 26.901 318.608,27.656 319.896,28.890 320.071 C 29.482 320.155,29.845 320.518,29.929 321.110 C 30.106 322.353,31.508 323.179,33.928 323.466 C 35.847 323.693,35.964 323.774,36.079 324.953 L 36.200 326.200 62.481 326.303 L 88.763 326.406 89.026 325.003 C 89.260 323.753,89.426 323.600,90.545 323.599 C 92.292 323.599,94.534 322.382,94.788 321.297 C 94.907 320.790,95.608 320.089,96.388 319.697 C 97.857 318.960,98.293 318.032,98.360 315.500 C 98.398 314.062,98.457 314.000,99.792 314.000 C 101.721 314.000,101.635 315.373,101.510 286.815 L 101.400 261.430 99.967 261.091 C 98.571 260.761,98.524 260.688,98.167 258.276 C 97.835 256.035,97.682 255.748,96.550 255.250 C 95.838 254.936,95.064 254.162,94.750 253.450 C 94.251 252.316,93.967 252.166,91.700 251.830 C 89.646 251.526,89.200 251.325,89.200 250.703 C 89.200 248.529,88.820 248.400,82.386 248.400 L 76.400 248.400 76.400 225.043 C 76.400 199.814,76.284 201.200,78.390 201.200 C 79.343 201.200,79.600 200.428,79.600 197.567 C 79.600 195.210,79.605 195.200,80.786 195.200 C 82.047 195.200,82.800 194.312,82.800 192.826 C 82.800 192.129,83.050 192.000,84.397 192.000 L 85.994 192.000 86.097 216.900 L 86.200 241.800 87.700 241.924 L 89.200 242.048 89.200 244.981 C 89.200 248.105,89.390 248.400,91.409 248.400 C 92.210 248.400,92.370 248.626,92.476 249.900 C 92.589 251.269,92.713 251.411,93.900 251.525 C 95.019 251.633,95.200 251.803,95.200 252.745 C 95.200 254.142,95.866 254.800,97.280 254.800 C 98.287 254.800,98.400 254.937,98.400 256.157 C 98.400 257.591,98.896 258.000,100.633 258.000 C 101.320 258.000,101.600 258.222,101.600 258.767 C 101.600 260.592,101.950 260.800,105.019 260.800 L 107.952 260.800 108.076 262.300 L 108.200 263.800 147.100 263.902 L 186.000 264.004 186.000 274.992 L 186.000 285.979 179.900 286.090 L 173.800 286.200 173.676 287.700 L 173.552 289.200 171.676 289.205 C 168.797 289.214,168.038 289.540,167.680 290.923 C 167.450 291.813,167.044 292.238,166.215 292.459 C 164.739 292.854,164.478 293.314,164.162 296.078 C 163.912 298.265,163.852 298.362,162.667 298.478 C 160.854 298.657,160.880 298.268,160.880 325.000 C 160.880 351.691,160.857 351.343,162.648 351.520 C 163.814 351.636,163.881 351.745,164.233 354.120 C 164.572 356.410,164.707 356.653,166.000 357.297 C 166.784 357.687,167.496 358.391,167.617 358.894 C 167.907 360.094,169.388 360.787,171.676 360.794 L 173.552 360.800 173.676 362.300 L 173.800 363.800 200.000 363.800 L 226.200 363.800 226.324 362.300 C 226.441 360.893,226.531 360.800,227.774 360.800 C 230.555 360.800,231.662 360.349,232.232 358.985 C 232.577 358.160,233.206 357.537,233.960 357.274 C 235.201 356.841,235.993 355.064,235.998 352.700 C 236.000 351.748,236.159 351.600,237.186 351.600 C 239.214 351.600,239.200 351.791,239.200 325.000 C 239.200 298.319,239.206 298.400,237.238 298.400 C 236.149 298.400,236.093 298.305,235.833 296.010 C 235.554 293.541,234.702 292.400,233.138 292.400 C 232.690 292.400,232.409 292.023,232.327 291.309 C 232.166 289.930,230.804 289.214,228.324 289.206 L 226.448 289.200 226.324 287.700 L 226.200 286.200 220.100 286.090 L 214.000 285.979 214.000 274.992 L 214.000 264.004 252.900 263.902 L 291.800 263.800 291.924 262.300 L 292.048 260.800 294.981 260.800 C 298.050 260.800,298.400 260.592,298.400 258.767 C 298.400 258.222,298.680 258.000,299.367 258.000 C 301.104 258.000,301.600 257.591,301.600 256.157 C 301.600 254.937,301.711 254.803,302.700 254.825 C 303.704 254.849,303.727 254.880,302.958 255.191 C 302.121 255.529,301.615 257.202,301.604 259.660 C 301.601 260.554,301.365 260.776,300.100 261.075 L 298.600 261.430 298.490 286.815 C 298.366 315.269,298.288 314.000,300.151 314.000 L 301.486 314.000 301.744 316.500 C 302.011 319.079,302.627 320.000,304.086 320.000 C 304.583 320.000,304.898 320.392,305.063 321.214 C 305.354 322.672,306.008 323.067,308.722 323.427 C 310.673 323.686,310.796 323.773,311.036 325.053 L 311.290 326.406 337.545 326.303 L 363.800 326.200 363.925 324.900 C 364.031 323.803,364.211 323.600,365.079 323.600 C 367.263 323.600,369.287 322.686,369.799 321.467 C 370.071 320.821,370.821 320.071,371.467 319.799 C 372.686 319.287,373.600 317.263,373.600 315.079 C 373.600 314.211,373.803 314.031,374.900 313.925 L 376.200 313.800 376.303 287.545 L 376.406 261.290 375.053 261.036 C 373.773 260.796,373.686 260.673,373.427 258.722 C 373.067 256.008,372.672 255.354,371.214 255.063 C 370.392 254.898,370.000 254.583,370.000 254.086 C 370.000 252.627,369.079 252.011,366.500 251.744 L 364.000 251.486 364.000 250.186 C 364.000 248.466,363.747 248.400,357.167 248.400 L 351.600 248.400 351.600 216.374 C 351.600 182.239,351.633 182.800,349.603 182.800 L 348.435 182.800 348.318 179.900 L 348.200 177.000 346.700 176.876 C 345.242 176.755,345.200 176.708,345.200 175.176 C 345.200 173.604,345.196 173.600,343.600 173.600 L 342.000 173.600 342.000 172.000 C 342.000 170.438,341.967 170.400,340.600 170.400 C 339.386 170.400,339.200 170.272,339.200 169.433 C 339.200 167.712,338.788 167.200,337.402 167.200 C 336.226 167.200,336.062 167.058,335.835 165.844 C 335.544 164.294,334.918 164.014,331.725 164.005 C 329.680 164.000,329.649 163.982,329.525 162.705 C 329.365 161.044,328.417 160.854,320.102 160.823 L 314.003 160.800 313.902 109.500 L 313.800 58.200 312.300 58.076 L 310.800 57.952 310.800 55.019 C 310.800 51.950,310.592 51.600,308.767 51.600 C 308.222 51.600,308.000 51.320,308.000 50.633 C 308.000 48.896,307.591 48.400,306.157 48.400 C 304.937 48.400,304.800 48.287,304.800 47.280 C 304.800 45.859,304.141 45.200,302.720 45.200 C 301.707 45.200,301.600 45.067,301.600 43.800 C 301.600 42.437,301.558 42.400,300.024 42.400 C 298.492 42.400,298.445 42.358,298.324 40.900 L 298.200 39.400 295.123 39.284 L 292.046 39.167 291.923 37.684 L 291.800 36.200 200.168 36.099 C 149.770 36.044,108.415 36.119,108.268 36.266 M148.557 77.033 C 148.691 77.381,148.800 77.991,148.800 78.390 C 148.800 79.343,149.572 79.600,152.433 79.600 C 154.790 79.600,154.800 79.605,154.800 80.786 C 154.800 82.047,155.688 82.800,157.174 82.800 C 157.963 82.800,158.000 83.016,158.000 87.576 L 158.000 92.352 156.500 92.476 C 155.149 92.588,154.988 92.722,154.880 93.834 C 154.761 95.048,154.710 95.075,151.901 95.434 C 149.120 95.790,149.034 95.835,148.710 97.100 L 148.377 98.400 143.614 98.400 L 138.851 98.400 138.725 97.100 C 138.601 95.806,138.588 95.799,135.769 95.453 C 133.055 95.120,132.924 95.054,132.569 93.853 C 132.267 92.826,131.966 92.577,130.900 92.475 L 129.600 92.349 129.600 87.575 L 129.600 82.800 130.571 82.800 C 131.814 82.800,132.800 81.814,132.800 80.571 C 132.800 79.659,132.936 79.600,135.026 79.600 C 137.884 79.600,138.800 79.111,138.800 77.586 L 138.800 76.400 143.557 76.400 C 147.526 76.400,148.355 76.505,148.557 77.033 M217.876 117.195 L 220.352 117.200 220.476 118.700 C 220.593 120.119,220.681 120.207,222.100 120.324 L 223.600 120.448 223.600 125.017 L 223.600 129.585 222.500 129.826 C 221.895 129.958,221.175 130.136,220.900 130.221 C 220.540 130.332,220.400 131.601,220.400 134.763 L 220.400 139.152 218.900 139.276 L 217.400 139.400 217.283 142.500 C 217.172 145.448,217.121 145.600,216.232 145.600 C 214.685 145.600,214.290 146.560,214.085 150.815 L 213.893 154.800 212.599 154.800 C 211.163 154.800,210.814 155.734,210.804 159.605 C 210.801 161.086,210.640 161.481,209.907 161.805 C 208.532 162.413,208.012 163.915,208.006 167.300 L 208.000 170.400 206.880 170.400 C 205.043 170.400,204.800 170.994,204.800 175.480 C 204.800 179.571,204.793 179.600,203.833 179.600 C 201.792 179.600,201.600 179.891,201.600 182.985 L 201.600 185.884 200.305 186.256 C 198.814 186.683,198.463 187.840,198.423 192.455 L 198.400 195.111 197.015 195.371 C 195.512 195.653,195.321 196.116,195.101 199.997 C 195.020 201.436,194.841 201.821,194.200 201.935 C 192.898 202.167,192.611 202.707,192.400 205.320 L 192.200 207.800 185.900 207.910 L 179.600 208.020 179.600 206.410 L 179.600 204.800 178.000 204.800 L 176.400 204.800 176.400 200.000 L 176.400 195.200 177.520 195.200 C 179.357 195.200,179.600 194.606,179.600 190.120 C 179.600 186.029,179.607 186.000,180.567 186.000 C 182.606 186.000,182.800 185.707,182.800 182.640 L 182.800 179.765 184.098 179.383 C 185.592 178.942,185.937 177.789,185.977 173.100 C 185.999 170.575,186.058 170.400,186.900 170.394 C 188.635 170.382,188.974 169.807,189.136 166.593 C 189.274 163.866,189.385 163.510,190.196 163.202 C 191.402 162.743,192.000 160.870,192.000 157.548 C 192.000 154.892,192.031 154.808,193.100 154.574 C 193.705 154.442,194.425 154.264,194.700 154.179 C 195.060 154.068,195.200 152.799,195.200 149.637 L 195.200 145.248 196.700 145.124 L 198.200 145.000 198.317 141.900 C 198.428 138.952,198.479 138.800,199.368 138.800 C 200.915 138.800,201.310 137.840,201.515 133.585 L 201.707 129.600 203.007 129.600 C 204.534 129.600,204.786 129.022,204.795 125.500 C 204.799 123.477,204.895 123.200,205.591 123.200 C 206.694 123.200,207.583 121.664,207.867 119.267 L 208.108 117.233 210.954 117.089 C 212.519 117.009,214.160 116.999,214.600 117.067 C 215.040 117.134,216.514 117.192,217.876 117.195 M161.342 130.808 C 161.531 131.753,161.847 132.069,162.792 132.258 C 163.790 132.458,164.000 132.694,164.000 133.617 C 164.000 135.062,164.368 135.997,164.943 136.013 C 167.075 136.075,167.957 139.200,165.843 139.200 C 164.342 139.200,164.000 139.681,164.000 141.786 C 164.000 142.769,163.796 143.160,163.202 143.315 C 162.763 143.430,162.278 143.856,162.124 144.262 C 161.971 144.668,161.610 145.238,161.322 145.529 C 161.035 145.819,160.800 146.573,160.800 147.203 C 160.800 148.204,160.635 148.365,159.500 148.475 C 158.313 148.589,158.189 148.731,158.076 150.100 C 157.970 151.374,157.810 151.600,157.009 151.600 C 155.323 151.600,154.800 152.019,154.800 153.371 C 154.800 154.436,154.578 154.753,153.500 155.228 C 151.891 155.936,151.695 156.739,151.695 162.600 C 151.695 168.536,151.887 169.308,153.480 169.777 C 154.573 170.099,154.778 170.364,154.880 171.577 C 154.988 172.855,155.153 173.038,156.500 173.371 C 157.858 173.706,158.000 173.867,158.000 175.071 C 158.000 176.323,158.081 176.400,159.400 176.400 C 160.720 176.400,160.800 176.476,160.800 177.733 C 160.800 178.734,161.200 179.500,162.400 180.800 C 163.558 182.054,164.000 182.880,164.000 183.787 C 164.000 185.337,164.623 186.000,166.080 186.000 C 168.055 186.000,167.014 188.511,164.700 189.328 C 164.218 189.498,164.000 190.001,164.000 190.944 C 164.000 192.086,163.827 192.357,162.958 192.575 C 162.314 192.737,161.754 193.268,161.488 193.971 C 160.787 195.830,151.600 196.208,151.600 194.377 C 151.600 192.905,151.130 192.400,149.757 192.400 C 148.440 192.400,148.400 192.352,148.400 190.800 L 148.400 189.200 146.800 189.200 L 145.200 189.200 145.200 187.600 C 145.200 186.720,145.049 186.000,144.864 186.000 C 144.680 186.000,144.330 185.566,144.089 185.035 C 143.847 184.504,143.288 183.955,142.846 183.815 C 142.244 183.624,142.014 183.147,141.922 181.903 C 141.812 180.408,141.673 180.214,140.500 179.912 C 139.527 179.661,139.198 179.354,139.194 178.689 C 139.185 177.375,138.737 176.888,137.399 176.736 C 136.331 176.615,136.186 176.436,136.076 175.100 C 135.955 173.642,135.908 173.600,134.376 173.600 L 132.800 173.600 132.800 171.626 C 132.800 168.826,132.285 167.726,130.824 167.405 L 129.600 167.136 129.600 162.368 C 129.600 157.692,129.617 157.600,130.500 157.594 C 132.096 157.583,132.475 157.009,132.695 154.271 L 132.906 151.642 134.353 151.521 C 135.711 151.407,135.808 151.308,135.924 149.900 C 136.041 148.492,136.130 148.400,137.381 148.400 C 138.789 148.400,139.200 147.896,139.200 146.167 C 139.200 145.480,139.422 145.200,139.967 145.200 C 141.507 145.200,142.000 144.746,142.000 143.326 C 142.000 142.221,142.327 141.632,143.600 140.445 C 144.899 139.234,145.200 138.680,145.200 137.501 C 145.200 136.111,145.265 136.043,146.700 135.924 C 148.119 135.807,148.207 135.719,148.324 134.300 C 148.435 132.962,148.567 132.800,149.544 132.800 C 150.942 132.800,151.600 132.135,151.600 130.720 L 151.600 129.600 156.350 129.600 L 161.100 129.600 161.342 130.808 M248.400 130.720 C 248.400 132.135,249.058 132.800,250.456 132.800 C 251.433 132.800,251.565 132.962,251.676 134.300 C 251.793 135.719,251.881 135.807,253.300 135.924 C 254.719 136.042,254.800 136.123,254.800 137.424 C 254.800 138.496,255.154 139.154,256.400 140.400 C 257.638 141.638,258.000 142.307,258.000 143.357 C 258.000 144.735,258.504 145.200,259.998 145.200 C 260.540 145.200,260.800 145.615,261.000 146.800 C 261.253 148.295,261.359 148.400,262.611 148.400 C 263.872 148.400,263.959 148.490,264.076 149.900 C 264.192 151.308,264.289 151.407,265.647 151.521 L 267.094 151.642 267.305 154.271 C 267.525 157.009,267.904 157.583,269.500 157.594 C 270.383 157.600,270.400 157.692,270.400 162.368 L 270.400 167.136 269.176 167.405 C 267.715 167.726,267.200 168.826,267.200 171.626 L 267.200 173.600 265.624 173.600 C 264.092 173.600,264.045 173.642,263.924 175.100 C 263.811 176.466,263.685 176.611,262.514 176.724 C 261.399 176.832,261.193 177.033,260.969 178.224 C 260.759 179.342,260.475 179.661,259.455 179.923 C 258.332 180.213,258.187 180.421,258.078 181.903 C 257.986 183.147,257.756 183.624,257.154 183.815 C 256.712 183.955,256.153 184.504,255.911 185.035 C 255.670 185.566,255.320 186.000,255.136 186.000 C 254.951 186.000,254.800 186.720,254.800 187.600 L 254.800 189.200 253.200 189.200 L 251.600 189.200 251.600 190.800 C 251.600 192.352,251.560 192.400,250.243 192.400 C 248.871 192.400,248.400 192.905,248.400 194.375 C 248.400 196.183,239.205 195.807,238.511 193.971 C 238.246 193.268,237.686 192.736,237.042 192.575 C 236.173 192.357,236.000 192.086,236.000 190.944 C 236.000 190.001,235.782 189.498,235.300 189.328 C 232.986 188.511,231.945 186.000,233.920 186.000 C 235.385 186.000,236.000 185.335,236.000 183.752 C 236.000 182.785,236.399 182.060,237.600 180.847 C 238.861 179.574,239.200 178.931,239.200 177.816 C 239.200 176.464,239.264 176.400,240.600 176.400 C 241.919 176.400,242.000 176.323,242.000 175.071 C 242.000 173.867,242.142 173.706,243.500 173.371 C 244.847 173.038,245.012 172.855,245.120 171.577 C 245.222 170.364,245.427 170.099,246.520 169.777 C 248.113 169.308,248.305 168.536,248.305 162.600 C 248.305 156.739,248.109 155.936,246.500 155.228 C 245.422 154.753,245.200 154.436,245.200 153.371 C 245.200 152.019,244.677 151.600,242.991 151.600 C 242.190 151.600,242.030 151.374,241.924 150.100 C 241.811 148.731,241.687 148.589,240.500 148.475 C 239.307 148.360,239.200 148.235,239.200 146.962 C 239.200 146.141,238.971 145.487,238.639 145.360 C 238.331 145.241,237.984 144.784,237.869 144.343 C 237.754 143.902,237.286 143.443,236.830 143.324 C 236.201 143.159,236.000 142.786,236.000 141.786 C 236.000 139.681,235.658 139.200,234.157 139.200 C 232.043 139.200,232.925 136.075,235.057 136.013 C 235.632 135.997,236.000 135.062,236.000 133.617 C 236.000 132.694,236.210 132.458,237.208 132.258 C 238.153 132.069,238.469 131.753,238.658 130.808 L 238.900 129.600 243.650 129.600 L 248.400 129.600 248.400 130.720 M317.200 192.826 C 317.200 194.312,317.953 195.200,319.214 195.200 L 320.400 195.200 320.406 197.700 C 320.413 200.663,320.593 201.011,322.300 201.382 L 323.600 201.664 323.600 225.021 L 323.600 248.379 317.515 248.490 L 311.429 248.600 311.075 250.100 C 310.776 251.365,310.555 251.601,309.660 251.604 C 307.202 251.615,305.529 252.121,305.191 252.958 C 304.880 253.727,304.849 253.704,304.825 252.700 C 304.803 251.711,304.937 251.600,306.157 251.600 C 307.591 251.600,308.000 251.104,308.000 249.367 C 308.000 248.680,308.222 248.400,308.767 248.400 C 310.592 248.400,310.800 248.050,310.800 244.981 L 310.800 242.048 312.300 241.924 L 313.800 241.800 313.903 216.900 L 314.006 192.000 315.603 192.000 C 316.950 192.000,317.200 192.129,317.200 192.826 " stroke="none" fill="#c9fa05" fill-rule="evenodd"></path><path id="path1" d="" stroke="none" fill="#080404" fill-rule="evenodd"></path><path id="path2" d="" stroke="none" fill="#080404" fill-rule="evenodd"></path><path id="path3" d="" stroke="none" fill="#080404" fill-rule="evenodd"></path><path id="path4" d="" stroke="none" fill="#080404" fill-rule="evenodd"></path></g></svg>